<svg xmlns="http://www.w3.org/2000/svg" style="display: none;">
  <!-- Playful Icons for Tablet Persona -->

  <!-- Target/Goal Icon -->
  <symbol id="target" viewBox="0 0 24 24" fill="none" stroke="currentColor" stroke-width="2">
    <circle cx="12" cy="12" r="10"/>
    <circle cx="12" cy="12" r="6"/>
    <circle cx="12" cy="12" r="2"/>
  </symbol>

  <!-- Sparkles Icon -->
  <symbol id="sparkles" viewBox="0 0 24 24" fill="currentColor">
    <path d="M9.813 15.904L9 18.75l-.813-2.846a4.5 4.5 0 00-3.09-3.09L2.25 12l2.846-.813a4.5 4.5 0 003.09-3.09L9 5.25l.813 2.846a4.5 4.5 0 003.09 3.09L15.75 12l-2.846.813a4.5 4.5 0 00-3.09 3.09zM18.259 8.715L18 9.75l-.259-1.035a3.375 3.375 0 00-2.455-2.456L14.25 6l1.036-.259a3.375 3.375 0 002.455-2.456L18 2.25l.259 1.035a3.375 3.375 0 002.456 2.456L21.75 6l-1.035.259a3.375 3.375 0 00-2.456 2.456zM16.894 20.567L16.5 21.75l-.394-1.183a2.25 2.25 0 00-1.423-1.423L13.5 18.75l1.183-.394a2.25 2.25 0 001.423-1.423L16.5 15.75l.394 1.183a2.25 2.25 0 001.423 1.423L19.5 18.75l-1.183.394a2.25 2.25 0 00-1.423 1.423z"/>
  </symbol>

  <!-- Heart Icon -->
  <symbol id="heart" viewBox="0 0 24 24" fill="currentColor">
    <path d="M11.645 20.91l-.007-.003-.022-.012a15.247 15.247 0 01-.383-.218 25.18 25.18 0 01-4.244-3.17C4.688 15.36 2.25 12.174 2.25 8.25 2.25 5.322 4.714 3 7.688 3A5.5 5.5 0 0112 5.052 5.5 5.5 0 0116.313 3c2.973 0 5.437 2.322 5.437 5.25 0 3.925-2.438 7.111-4.739 9.256a25.175 25.175 0 01-4.244 3.17 15.247 15.247 0 01-.383.219l-.022.012-.007.004-.003.001a.752.752 0 01-.704 0l-.003-.001z"/>
  </symbol>

  <!-- Star Icon -->
  <symbol id="star" viewBox="0 0 24 24" fill="currentColor">
    <path d="M11.48 3.499a.562.562 0 011.04 0l2.125 5.111a.563.563 0 00.475.345l5.518.442c.499.04.701.663.321.988l-4.204 3.602a.563.563 0 00-.182.557l1.285 5.385a.562.562 0 01-.84.61l-4.725-2.885a.563.563 0 00-.586 0L6.982 20.54a.562.562 0 01-.84-.61l1.285-5.386a.562.562 0 00-.182-.557l-4.204-3.602a.563.563 0 01.321-.988l5.518-.442a.563.563 0 00.475-.345L11.48 3.5z"/>
  </symbol>

  <!-- Rocket Icon -->
  <symbol id="rocket" viewBox="0 0 24 24" fill="currentColor">
    <path d="M15.59 14.37a6 6 0 01-5.84 7.38v-4.8m5.84-2.58a14.98 14.98 0 006.16-12.12A14.98 14.98 0 009.631 8.41m5.96 5.96a14.926 14.926 0 01-5.841 2.58m-.119-8.54a6 6 0 00-7.381 5.84h4.8m2.581-5.84a14.927 14.927 0 00-2.58 5.84m2.699 2.7c-.103.021-.207.041-.311.06a15.09 15.09 0 01-2.448-2.448 14.9 14.9 0 01.06-.312m-2.24 2.39a4.493 4.493 0 00-1.757 4.306 4.493 4.493 0 004.306-1.758M16.5 9a1.5 1.5 0 11-3 0 1.5 1.5 0 013 0z"/>
  </symbol>

  <!-- Rainbow Icon -->
  <symbol id="rainbow" viewBox="0 0 24 24" fill="none" stroke="currentColor" stroke-width="2">
    <path d="M22 17a10 10 0 0 0-20 0"/>
    <path d="M6 17a6 6 0 0 1 12 0"/>
    <path d="M10 17a2 2 0 0 1 4 0"/>
  </symbol>

  <!-- Magic Wand Icon -->
  <symbol id="magic-wand" viewBox="0 0 24 24" fill="currentColor">
    <path d="M8.5 8.5l1.5 1.5L12 8l-1.5-1.5L8.5 8.5zM12 12l1.5 1.5L15.5 12 14 10.5 12 12zM16.5 16.5L18 18l1.5-1.5L18 15l-1.5 1.5zM21.5 6.5L20 8l1.5 1.5L23 8l-1.5-1.5zM6.5 21.5L8 20l-1.5-1.5L5 20l1.5 1.5zM3.5 3.5L5 5l1.5-1.5L5 2l-1.5 1.5z"/>
    <path d="M12 2l1.5 1.5L15.5 2 14 .5 12 2zM2 12l1.5 1.5L5 12l-1.5-1.5L2 12z"/>
  </symbol>

  <!-- Smile Icon -->
  <symbol id="smile" viewBox="0 0 24 24" fill="none" stroke="currentColor" stroke-width="2">
    <circle cx="12" cy="12" r="10"/>
    <path d="M8 14s1.5 2 4 2 4-2 4-2"/>
    <line x1="9" y1="9" x2="9.01" y2="9"/>
    <line x1="15" y1="9" x2="15.01" y2="9"/>
  </symbol>

  <!-- Gift Icon -->
  <symbol id="gift" viewBox="0 0 24 24" fill="none" stroke="currentColor" stroke-width="2">
    <polyline points="20,12 20,22 4,22 4,12"/>
    <rect x="2" y="7" width="20" height="5"/>
    <line x1="12" y1="22" x2="12" y2="7"/>
    <path d="M12 7H7.5a2.5 2.5 0 0 1 0-5C11 2 12 7 12 7z"/>
    <path d="M12 7h4.5a2.5 2.5 0 0 0 0-5C13 2 12 7 12 7z"/>
  </symbol>

  <!-- Trophy Icon -->
  <symbol id="trophy" viewBox="0 0 24 24" fill="currentColor">
    <path d="M5.166 2.621v.858c-1.035.148-2.059.33-3.071.543a.75.75 0 0 0-.584.859 6.753 6.753 0 0 0 6.138 5.6 6.73 6.73 0 0 0 2.743 1.346A6.707 6.707 0 0 1 9.279 15H8.54c-1.036 0-1.875.84-1.875 1.875V19.5h-.75a2.25 2.25 0 0 0-2.25 2.25c0 .414.336.75.75.75h15a.75.75 0 0 0 .75-.75 2.25 2.25 0 0 0-2.25-2.25H16.5v-2.625c0-1.036-.84-1.875-1.875-1.875h-.739a6.706 6.706 0 0 1-1.112-3.173 6.73 6.73 0 0 0 2.743-1.347 6.753 6.753 0 0 0 6.139-5.6.75.75 0 0 0-.585-.858 47.077 47.077 0 0 0-3.07-.543V2.62a.75.75 0 0 0-.658-.744 49.22 49.22 0 0 0-6.093-.377c-2.063 0-4.096.128-6.093.377a.75.75 0 0 0-.657.744z"/>
  </symbol>

  <!-- Lightbulb Icon -->
  <symbol id="lightbulb" viewBox="0 0 24 24" fill="currentColor">
    <path d="M12 2.25a.75.75 0 01.75.75v2.25a.75.75 0 01-1.5 0V3a.75.75 0 01.75-.75zM7.5 12a4.5 4.5 0 119 0c0 1.58-.251 2.95-.68 4.002-.145.353-.29.658-.394.921a.75.75 0 01-1.368.595 7.5 7.5 0 00-.943-1.518c-.328-.377-.49-.411-.537-.484h-.09c-.284 0-.284.172-.284.246 0 .58-.414.998-.75 1.002h-.09c-.284 0-.284.172-.284.246 0 .58-.414.998-.75 1.002-.892 0-1.628-.88-1.628-1.634 0-.58.414-.998.75-1.002h.09c.284 0 .284-.172.284-.246 0-.58.414-.998.75-1.002h.09c.047-.073.209-.107.537-.484.329-.377.594-.813.943-1.518.145-.353.29-.658.394-.921C7.25 14.95 7.5 13.58 7.5 12zM3 12a.75.75 0 01-.75-.75 9.75 9.75 0 0119.5 0A.75.75 0 0121 12a.75.75 0 01-.75.75A.75.75 0 0119.5 12 8.25 8.25 0 004.5 12A.75.75 0 013 12z"/>
  </symbol>

  <!-- Confetti Icon -->
  <symbol id="confetti" viewBox="0 0 24 24" fill="currentColor">
    <path d="M4.5 3.75a3 3 0 00-3 3v.75h21v-.75a3 3 0 00-3-3h-15z"/>
    <path d="M22.5 9.75h-21v8.25a3 3 0 003 3h15a3 3 0 003-3V9.75z"/>
    <path d="M6 12l3 3 6-6"/>
  </symbol>

  <!-- Thumbs Up Icon -->
  <symbol id="thumbs-up" viewBox="0 0 24 24" fill="currentColor">
    <path d="M7.493 18.75c-.425 0-.82-.236-.975-.632A7.48 7.48 0 016 15.375c0-1.75.599-3.358 1.602-4.634.151-.192.373-.309.6-.397.473-.183.89-.514 1.212-.924a9.042 9.042 0 012.861-2.4c.723-.384 1.35-.956 1.653-1.715a4.498 4.498 0 00.322-1.672V3a.75.75 0 01.75-.75 2.25 2.25 0 012.25 2.25c0 1.152-.26 2.243-.723 3.218-.266.558-.107 1.282.725 1.282h3.126c1.026 0 1.945.694 2.054 1.715.045.422.068.85.068 1.285a11.95 11.95 0 01-2.649 7.521c-.388.482-.987.729-1.605.729H14.23c-.483 0-.964-.078-1.423-.23l-3.114-1.04a4.501 4.501 0 00-1.423-.23h-.777zM2.331 10.977a11.969 11.969 0 00-.831 4.398 12 12 0 00.52 3.507c.26.85 1.084 1.368 1.973 1.368H4.9c.445 0 .72-.498.523-.898a8.963 8.963 0 01-.924-3.977c0-1.708.476-3.305 1.302-4.666.245-.403-.028-.959-.5-.959H4.25c-.832 0-1.612.453-1.918 1.227z"/>
  </symbol>

  <!-- Music Note Icon -->
  <symbol id="music-note" viewBox="0 0 24 24" fill="currentColor">
    <path d="M12 3v10.55c-.59-.34-1.27-.55-2-.55-2.21 0-4 1.79-4 4s1.79 4 4 4 4-1.79 4-4V7h4V3h-6z"/>
  </symbol>

  <!-- Flame Icon -->
  <symbol id="flame" viewBox="0 0 24 24" fill="currentColor">
    <path d="M17.66 11.2C17.43 10.9 17.15 10.64 16.89 10.38C16.22 9.78 15.46 9.35 14.82 8.72C13.33 7.26 13 4.85 13.95 3C13.31 3.13 12.68 3.33 12.08 3.6C11.18 4 10.35 4.5 9.61 5.12C8.1 6.47 7.14 8.24 6.91 10.16C6.61 12.61 7.4 15.02 9.07 16.94C10.22 18.32 11.75 19.4 13.45 20.04C14.32 20.37 15.22 20.55 16.12 20.55C17.56 20.55 18.98 20.08 20.15 19.22C21.14 18.5 21.93 17.54 22.44 16.42C23.26 14.77 23.27 12.86 22.46 11.2C21.43 8.91 19.66 7.08 17.66 11.2Z"/>
  </symbol>
</svg>
